<?xml version="1.0" encoding="UTF-8"?><svg id="Camada_1" xmlns="http://www.w3.org/2000/svg" xmlns:xlink="http://www.w3.org/1999/xlink" viewBox="0 0 710.64 484.94"><defs><style>.cls-1{fill:url(#Gradiente_sem_nome_19-3);}.cls-1,.cls-2,.cls-3,.cls-4{stroke-width:0px;}.cls-2{fill:url(#Gradiente_sem_nome_19);}.cls-3{fill:#fff;}.cls-4{fill:url(#Gradiente_sem_nome_19-2);}</style><linearGradient id="Gradiente_sem_nome_19" x1="255.27" y1="215.8" x2="457.53" y2="215.8" gradientUnits="userSpaceOnUse"><stop offset="0" stop-color="#94682c"/><stop offset=".51" stop-color="#ebd871"/><stop offset="1" stop-color="#b28c33"/></linearGradient><linearGradient id="Gradiente_sem_nome_19-2" y1="113.04" y2="113.04" xlink:href="#Gradiente_sem_nome_19"/><linearGradient id="Gradiente_sem_nome_19-3" x1="243.4" y1="164.77" x2="469.4" y2="164.77" xlink:href="#Gradiente_sem_nome_19"/></defs><path class="cls-3" d="M150.58,457.58c0,7.41-4.5,11.34-10,11.34s-9.68-4.41-9.68-10.93c0-6.84,4.25-11.31,10-11.31s9.68,4.5,9.68,10.9ZM133.87,457.93c0,4.6,2.49,8.72,6.87,8.72s6.9-4.06,6.9-8.95c0-4.28-2.24-8.75-6.87-8.75s-6.9,4.25-6.9,8.98Z"/><path class="cls-3" d="M165.25,467.99c-.73.38-2.36.89-4.44.89-4.67,0-7.7-3.16-7.7-7.89s3.26-8.21,8.31-8.21c1.66,0,3.13.42,3.9.8l-.64,2.17c-.67-.38-1.73-.74-3.26-.74-3.55,0-5.46,2.62-5.46,5.85,0,3.58,2.3,5.78,5.37,5.78,1.6,0,2.65-.42,3.45-.77l.48,2.11Z"/><path class="cls-3" d="M181.48,464.35c0,1.6.03,3,.13,4.22h-2.49l-.16-2.52h-.06c-.73,1.25-2.36,2.88-5.11,2.88-2.43,0-5.34-1.34-5.34-6.77v-9.04h2.81v8.56c0,2.94.89,4.92,3.45,4.92,1.89,0,3.2-1.31,3.71-2.56.16-.42.26-.93.26-1.44v-9.49h2.81v11.25Z"/><path class="cls-3" d="M186.14,445.88h2.81v22.69h-2.81v-22.69Z"/><path class="cls-3" d="M207.68,460.71c0,5.72-3.96,8.21-7.7,8.21-4.19,0-7.41-3.07-7.41-7.96,0-5.18,3.39-8.21,7.67-8.21s7.44,3.23,7.44,7.96ZM195.41,460.87c0,3.39,1.95,5.94,4.7,5.94s4.7-2.52,4.7-6.01c0-2.62-1.31-5.94-4.63-5.94s-4.76,3.07-4.76,6.01Z"/><path class="cls-3" d="M211.22,458.15c0-1.98-.06-3.58-.13-5.05h2.52l.13,2.65h.06c1.15-1.89,2.97-3,5.5-3,3.74,0,6.55,3.16,6.55,7.86,0,5.56-3.39,8.31-7.03,8.31-2.04,0-3.83-.89-4.76-2.43h-.06v8.4h-2.78v-16.74ZM214,462.27c0,.42.06.8.13,1.15.51,1.95,2.2,3.29,4.22,3.29,2.97,0,4.7-2.43,4.7-5.97,0-3.1-1.63-5.75-4.6-5.75-1.92,0-3.71,1.37-4.25,3.48-.1.35-.19.77-.19,1.15v2.65Z"/><path class="cls-3" d="M229.4,445.88h2.81v22.69h-2.81v-22.69Z"/><path class="cls-3" d="M245.5,468.57l-.22-1.95h-.1c-.86,1.21-2.52,2.3-4.73,2.3-3.13,0-4.73-2.21-4.73-4.44,0-3.74,3.32-5.78,9.3-5.75v-.32c0-1.28-.35-3.58-3.51-3.58-1.44,0-2.94.45-4.03,1.15l-.64-1.85c1.28-.83,3.13-1.37,5.08-1.37,4.73,0,5.88,3.23,5.88,6.33v5.78c0,1.34.06,2.65.26,3.71h-2.56ZM245.09,460.67c-3.07-.06-6.55.48-6.55,3.48,0,1.82,1.21,2.68,2.65,2.68,2.01,0,3.29-1.28,3.74-2.59.1-.29.16-.61.16-.89v-2.68ZM246.49,446.42l-3.9,4.57h-2.01l2.81-4.57h3.1Z"/><path class="cls-3" d="M251.96,465.69c.83.54,2.3,1.12,3.71,1.12,2.04,0,3-1.02,3-2.3,0-1.34-.8-2.08-2.88-2.84-2.78-.99-4.09-2.52-4.09-4.38,0-2.49,2.01-4.54,5.34-4.54,1.57,0,2.94.45,3.8.96l-.7,2.04c-.61-.38-1.73-.89-3.16-.89-1.66,0-2.59.96-2.59,2.11,0,1.28.93,1.85,2.94,2.62,2.68,1.02,4.06,2.36,4.06,4.67,0,2.72-2.11,4.63-5.78,4.63-1.69,0-3.26-.42-4.35-1.05l.7-2.14Z"/><path class="cls-3" d="M268.38,448.66v4.44h4.03v2.14h-4.03v8.34c0,1.92.54,3,2.11,3,.73,0,1.28-.1,1.63-.19l.13,2.11c-.54.22-1.41.38-2.49.38-1.31,0-2.36-.42-3.04-1.18-.8-.83-1.09-2.21-1.09-4.03v-8.44h-2.4v-2.14h2.4v-3.71l2.75-.74Z"/><path class="cls-3" d="M278.7,448.76c.03.96-.67,1.73-1.79,1.73-.99,0-1.69-.77-1.69-1.73s.73-1.76,1.76-1.76,1.73.77,1.73,1.76ZM275.57,468.57v-15.46h2.81v15.46h-2.81Z"/><path class="cls-3" d="M294.07,467.99c-.73.38-2.36.89-4.44.89-4.67,0-7.7-3.16-7.7-7.89s3.26-8.21,8.31-8.21c1.66,0,3.13.42,3.9.8l-.64,2.17c-.67-.38-1.73-.74-3.26-.74-3.55,0-5.46,2.62-5.46,5.85,0,3.58,2.3,5.78,5.37,5.78,1.6,0,2.65-.42,3.45-.77l.48,2.11Z"/><path class="cls-3" d="M305.92,468.57l-.22-1.95h-.1c-.86,1.21-2.52,2.3-4.73,2.3-3.13,0-4.73-2.21-4.73-4.44,0-3.74,3.32-5.78,9.3-5.75v-.32c0-1.28-.35-3.58-3.51-3.58-1.44,0-2.94.45-4.03,1.15l-.64-1.85c1.28-.83,3.13-1.37,5.08-1.37,4.73,0,5.88,3.23,5.88,6.33v5.78c0,1.34.06,2.65.26,3.71h-2.56ZM305.5,460.67c-3.07-.06-6.55.48-6.55,3.48,0,1.82,1.21,2.68,2.65,2.68,2.01,0,3.29-1.28,3.74-2.59.1-.29.16-.61.16-.89v-2.68Z"/><path class="cls-3" d="M321.1,461.35c.06,3.8,2.49,5.37,5.3,5.37,2.01,0,3.23-.35,4.28-.8l.48,2.01c-.99.45-2.68.96-5.14.96-4.76,0-7.6-3.13-7.6-7.8s2.75-8.34,7.25-8.34c5.05,0,6.39,4.44,6.39,7.29,0,.58-.06,1.02-.1,1.31h-10.86ZM329.34,459.33c.03-1.79-.73-4.57-3.9-4.57-2.84,0-4.09,2.62-4.31,4.57h8.21Z"/><path class="cls-3" d="M353.56,458.47h-8.37v7.76h9.33v2.33h-12.11v-21.54h11.63v2.33h-8.85v6.81h8.37v2.3Z"/><path class="cls-3" d="M357.65,465.69c.83.54,2.3,1.12,3.71,1.12,2.04,0,3-1.02,3-2.3,0-1.34-.8-2.08-2.88-2.84-2.78-.99-4.09-2.52-4.09-4.38,0-2.49,2.01-4.54,5.34-4.54,1.57,0,2.94.45,3.8.96l-.7,2.04c-.61-.38-1.73-.89-3.16-.89-1.66,0-2.59.96-2.59,2.11,0,1.28.93,1.85,2.94,2.62,2.68,1.02,4.06,2.36,4.06,4.67,0,2.72-2.11,4.63-5.78,4.63-1.69,0-3.26-.42-4.35-1.05l.7-2.14Z"/><path class="cls-3" d="M374.07,448.66v4.44h4.03v2.14h-4.03v8.34c0,1.92.54,3,2.11,3,.74,0,1.28-.1,1.63-.19l.13,2.11c-.54.22-1.41.38-2.49.38-1.31,0-2.37-.42-3.04-1.18-.8-.83-1.09-2.21-1.09-4.03v-8.44h-2.4v-2.14h2.4v-3.71l2.75-.74Z"/><path class="cls-3" d="M382.63,461.35c.06,3.8,2.49,5.37,5.3,5.37,2.01,0,3.23-.35,4.28-.8l.48,2.01c-.99.45-2.68.96-5.14.96-4.76,0-7.6-3.13-7.6-7.8s2.75-8.34,7.25-8.34c5.05,0,6.39,4.44,6.39,7.29,0,.58-.06,1.02-.1,1.31h-10.86ZM390.87,459.33c.03-1.79-.73-4.57-3.9-4.57-2.84,0-4.09,2.62-4.31,4.57h8.21ZM391.54,446.42l-3.9,4.57h-2.01l2.81-4.57h3.1Z"/><path class="cls-3" d="M400.46,448.66v4.44h4.03v2.14h-4.03v8.34c0,1.92.54,3,2.11,3,.74,0,1.28-.1,1.63-.19l.13,2.11c-.54.22-1.41.38-2.49.38-1.31,0-2.37-.42-3.04-1.18-.8-.83-1.09-2.21-1.09-4.03v-8.44h-2.4v-2.14h2.4v-3.71l2.75-.74Z"/><path class="cls-3" d="M410.78,448.76c.03.96-.67,1.73-1.79,1.73-.99,0-1.69-.77-1.69-1.73s.73-1.76,1.76-1.76,1.73.77,1.73,1.76ZM407.65,468.57v-15.46h2.81v15.46h-2.81Z"/><path class="cls-3" d="M426.15,467.99c-.73.38-2.36.89-4.44.89-4.67,0-7.7-3.16-7.7-7.89s3.26-8.21,8.31-8.21c1.66,0,3.13.42,3.9.8l-.64,2.17c-.67-.38-1.73-.74-3.26-.74-3.55,0-5.46,2.62-5.46,5.85,0,3.58,2.3,5.78,5.37,5.78,1.6,0,2.65-.42,3.45-.77l.48,2.11Z"/><path class="cls-3" d="M438,468.57l-.22-1.95h-.1c-.86,1.21-2.52,2.3-4.73,2.3-3.13,0-4.73-2.21-4.73-4.44,0-3.74,3.32-5.78,9.3-5.75v-.32c0-1.28-.35-3.58-3.51-3.58-1.44,0-2.94.45-4.03,1.15l-.64-1.85c1.28-.83,3.13-1.37,5.08-1.37,4.73,0,5.88,3.23,5.88,6.33v5.78c0,1.34.06,2.65.26,3.71h-2.56ZM437.58,460.67c-3.07-.06-6.55.48-6.55,3.48,0,1.82,1.21,2.68,2.65,2.68,2.01,0,3.29-1.28,3.74-2.59.1-.29.16-.61.16-.89v-2.68Z"/><path class="cls-3" d="M451.71,447.29c1.34-.22,3.1-.42,5.34-.42,2.75,0,4.76.64,6.04,1.79,1.18,1.02,1.89,2.59,1.89,4.51s-.58,3.48-1.66,4.6c-1.47,1.57-3.87,2.36-6.58,2.36-.83,0-1.6-.03-2.24-.19v8.63h-2.78v-21.28ZM454.48,457.67c.61.16,1.37.22,2.3.22,3.35,0,5.4-1.63,5.4-4.6s-2.01-4.22-5.08-4.22c-1.21,0-2.14.1-2.62.22v8.37Z"/><path class="cls-3" d="M469.37,461.35c.06,3.8,2.49,5.37,5.3,5.37,2.01,0,3.23-.35,4.28-.8l.48,2.01c-.99.45-2.68.96-5.14.96-4.76,0-7.6-3.13-7.6-7.8s2.75-8.34,7.25-8.34c5.05,0,6.39,4.44,6.39,7.29,0,.58-.06,1.02-.1,1.31h-10.86ZM477.62,459.33c.03-1.79-.73-4.57-3.9-4.57-2.84,0-4.09,2.62-4.31,4.57h8.21Z"/><path class="cls-3" d="M483.82,457.93c0-1.82-.03-3.39-.13-4.83h2.46l.1,3.04h.13c.7-2.08,2.4-3.39,4.28-3.39.32,0,.54.03.8.1v2.65c-.29-.06-.58-.1-.96-.1-1.98,0-3.39,1.5-3.77,3.61-.06.38-.13.83-.13,1.31v8.24h-2.78v-10.64Z"/><path class="cls-3" d="M497.52,448.76c.03.96-.67,1.73-1.79,1.73-.99,0-1.69-.77-1.69-1.73s.73-1.76,1.76-1.76,1.73.77,1.73,1.76ZM494.39,468.57v-15.46h2.81v15.46h-2.81Z"/><path class="cls-3" d="M515.86,460.71c0,5.72-3.96,8.21-7.7,8.21-4.19,0-7.41-3.07-7.41-7.96,0-5.18,3.39-8.21,7.67-8.21s7.44,3.23,7.44,7.96ZM503.59,460.87c0,3.39,1.95,5.94,4.7,5.94s4.7-2.52,4.7-6.01c0-2.62-1.31-5.94-4.63-5.94s-4.76,3.07-4.76,6.01Z"/><path class="cls-3" d="M530.43,467.99c-.73.38-2.36.89-4.44.89-4.67,0-7.7-3.16-7.7-7.89s3.26-8.21,8.31-8.21c1.66,0,3.13.42,3.9.8l-.64,2.17c-.67-.38-1.72-.74-3.26-.74-3.55,0-5.46,2.62-5.46,5.85,0,3.58,2.3,5.78,5.37,5.78,1.6,0,2.65-.42,3.45-.77l.48,2.11Z"/><path class="cls-3" d="M546.66,464.35c0,1.6.03,3,.13,4.22h-2.49l-.16-2.52h-.06c-.73,1.25-2.36,2.88-5.11,2.88-2.43,0-5.34-1.34-5.34-6.77v-9.04h2.81v8.56c0,2.94.89,4.92,3.45,4.92,1.89,0,3.2-1.31,3.71-2.56.16-.42.25-.93.25-1.44v-9.49h2.81v11.25Z"/><path class="cls-3" d="M551.32,445.88h2.81v22.69h-2.81v-22.69Z"/><path class="cls-3" d="M567.43,468.57l-.22-1.95h-.1c-.86,1.21-2.52,2.3-4.73,2.3-3.13,0-4.73-2.21-4.73-4.44,0-3.74,3.32-5.78,9.3-5.75v-.32c0-1.28-.35-3.58-3.51-3.58-1.44,0-2.94.45-4.03,1.15l-.64-1.85c1.28-.83,3.13-1.37,5.08-1.37,4.73,0,5.88,3.23,5.88,6.33v5.78c0,1.34.06,2.65.26,3.71h-2.56ZM567.01,460.67c-3.07-.06-6.55.48-6.55,3.48,0,1.82,1.21,2.68,2.65,2.68,2.01,0,3.29-1.28,3.74-2.59.1-.29.16-.61.16-.89v-2.68Z"/><path class="cls-3" d="M574.26,457.93c0-1.82-.03-3.39-.13-4.83h2.46l.1,3.04h.13c.7-2.08,2.4-3.39,4.28-3.39.32,0,.54.03.8.1v2.65c-.29-.06-.58-.1-.96-.1-1.98,0-3.39,1.5-3.77,3.61-.06.38-.13.83-.13,1.31v8.24h-2.78v-10.64Z"/><path class="cls-3" d="M19.69,422.84c6.56-.21,6.56-1.78,6.56-6.49v-30.34c0-4.78,0-6.29-6.56-6.49v-2.25h22.76c12.17,0,23.65,8.75,23.65,23.92s-11.69,23.92-23.78,23.92h-22.62v-2.25ZM42.52,422.57c9.64,0,13.94-8.82,13.94-21.39s-4.31-21.39-13.74-21.39h-3.55c-3.62,0-4.03,1.23-4.03,4.44v33.9c0,2.94.34,4.44,4.03,4.44h3.35Z"/><path class="cls-3" d="M107.17,397.76c0,4.03-2.73,6.63-5.88,6.63-1.98,0-3.49-1.3-4.1-3.08,1.57-1.43,2.6-3.21,2.53-4.71-.07-1.44-.89-2.26-2.46-2.26-3.14,0-6.63,4.1-8.54,13.46v9.29c0,4.51,0,5.6,5.33,5.81v2.19h-18.18v-2.19c4.78-.2,4.78-1.3,4.78-5.81v-17.5c0-3.35,0-6.42-5.4-6.08v-2.19l12.37-.96.89.96-.34,10.18c2.19-7.52,6.42-11.14,11.41-11.14s7.59,3.55,7.59,7.38Z"/><path class="cls-3" d="M150.97,414.1v4.24c0,2.19-.34,4.1-1.64,5.4-1.23,1.23-3.28,1.98-5.88,1.98-2.46,0-4.44-.75-5.74-2.39-.96-1.3-1.3-3.14-1.3-5.54v-.21c-1.16,2.94-4.24,8.2-12.51,8.2-5.81,0-9.43-3.49-9.43-8.75,0-3.28,1.37-5.4,3.76-7.11,3.96-2.94,10.32-4.31,17.97-5.26v-3.96c0-6.42-3.21-8.07-6.56-8.07-2.87,0-4.65.82-5.67,1.91-.75.68-1.02,1.57-1.02,2.46,0,1.71,1.09,2.8,3.21,4.31-.55,2.19-2.8,3.55-5.26,3.55-3.49,0-5.13-2.6-5.13-5.47,0-5.6,6.08-9.02,14.28-9.02s14.01,3.01,14.01,11.75v15.99c0,1.3.07,2.46.48,3.14.34.68,1.03,1.09,1.98,1.09s1.64-.41,2.05-1.23c.34-.68.41-1.85.41-3.08v-3.96h1.98ZM136.21,410.61v-3.76c-4.65.62-8.47,1.57-10.94,3.62-1.91,1.44-2.53,3.35-2.53,5.6,0,3.14,1.71,5.47,4.78,5.47,5.54,0,8.61-5.74,8.68-10.94Z"/><path class="cls-3" d="M158.9,420.45c0-3.28,2.26-5.4,5.6-5.4,3.55,0,5.67,2.12,5.67,5.4s-2.12,5.47-5.67,5.47c-3.35,0-5.6-2.19-5.6-5.47Z"/><path class="cls-3" d="M202.36,401.18c0-15.17,11.82-24.6,22.9-24.6,7.65,0,11.48,4.1,12.92,4.1.96,0,1.3-.96,1.37-4.1h2.19l.27,18.86h-2.6c-.41-7.18-3.28-16.33-13.87-16.33s-13.53,9.29-13.53,22.07,3.42,21.8,13.4,21.8,13.6-7.72,14.15-15.86h2.6c-.41,7.59-4.65,18.66-17.56,18.66-11.62,0-22.21-9.16-22.21-24.6Z"/><path class="cls-3" d="M252.45,425.1v-2.19c4.85-.2,4.85-1.3,4.85-5.81v-17.77c0-3.35,0-6.22-5.54-5.74v-2.25l13.05-.96.96.96-.48,10.18v15.58c0,4.51,0,5.6,4.85,5.81v2.19h-17.7ZM255.94,379.79c0-3.14,2.12-5.19,5.33-5.19s5.4,1.98,5.4,5.19-2.05,5.13-5.4,5.13-5.33-2.05-5.33-5.13Z"/><path class="cls-3" d="M320.05,422.91v2.19h-17.5v-2.19c4.65-.2,4.65-1.3,4.65-5.81v-15.38c0-4.78-1.91-6.77-5.4-6.77-4.17,0-8.06,3.62-10.39,9.71v12.44c0,4.51,0,5.6,4.65,5.81v2.19h-17.5v-2.19c4.78-.2,4.78-1.3,4.78-5.81v-17.5c0-3.35,0-6.42-5.4-6.08v-2.19l12.37-.96.89.96-.41,9.29c2.94-6.22,8.34-10.25,14.28-10.25,6.29,0,10.12,4.03,10.12,11.14v15.58c0,4.51,0,5.6,4.85,5.81Z"/><path class="cls-3" d="M340.34,393.66v22.55c0,1.91.07,3.62.62,4.58.48.96,1.43,1.57,2.8,1.57s2.39-.62,2.94-1.78c.41-.96.55-2.67.55-4.37v-5.06h1.98v5.81c0,2.8-.48,4.85-1.91,6.42-1.37,1.44-3.49,2.32-6.36,2.32-3.55,0-5.95-1.3-7.18-3.14-1.16-1.64-1.44-3.96-1.44-6.29v-22.62h-5.47v-2.6h2.32c5.88,0,8.27-4.44,9.09-12.51h2.05v12.51l8.88-.21v3.08l-8.88-.27Z"/><path class="cls-3" d="M398.57,422.91v2.19h-17.43v-2.19c4.65-.2,4.65-1.3,4.65-5.81v-15.38c0-4.78-1.91-6.77-5.4-6.77-4.17,0-8,3.55-10.39,9.57v12.58c0,4.51,0,5.6,4.65,5.81v2.19h-17.56v-2.19c4.85-.2,4.85-1.3,4.85-5.81v-34.1c0-3.35,0-6.29-4.85-6.08v-2.19l12.44-.89.96.89-.48,9.64-.62,16.2c3.01-6.22,8.34-10.18,14.28-10.18,6.29,0,10.05,4.03,10.05,11.14v15.58c0,4.51,0,5.6,4.85,5.81Z"/><path class="cls-3" d="M406.9,425.1v-2.19c4.85-.2,4.85-1.3,4.85-5.81v-17.77c0-3.35,0-6.22-5.54-5.74v-2.25l13.05-.96.96.96-.48,10.18v15.58c0,4.51,0,5.6,4.85,5.81v2.19h-17.7ZM410.39,379.79c0-3.14,2.12-5.19,5.33-5.19s5.4,1.98,5.4,5.19-2.05,5.13-5.4,5.13-5.33-2.05-5.33-5.13Z"/><path class="cls-3" d="M469.71,414.1v4.24c0,2.19-.34,4.1-1.64,5.4-1.23,1.23-3.28,1.98-5.88,1.98-2.46,0-4.44-.75-5.74-2.39-.96-1.3-1.3-3.14-1.3-5.54v-.21c-1.16,2.94-4.24,8.2-12.51,8.2-5.81,0-9.43-3.49-9.43-8.75,0-3.28,1.37-5.4,3.76-7.11,3.96-2.94,10.32-4.31,17.97-5.26v-3.96c0-6.42-3.21-8.07-6.56-8.07-2.87,0-4.65.82-5.67,1.91-.75.68-1.03,1.57-1.03,2.46,0,1.71,1.09,2.8,3.21,4.31-.55,2.19-2.8,3.55-5.26,3.55-3.49,0-5.13-2.6-5.13-5.47,0-5.6,6.08-9.02,14.28-9.02s14.01,3.01,14.01,11.75v15.99c0,1.3.07,2.46.48,3.14.34.68,1.03,1.09,1.98,1.09s1.64-.41,2.05-1.23c.34-.68.41-1.85.41-3.08v-3.96h1.98ZM454.95,410.61v-3.76c-4.65.62-8.47,1.57-10.93,3.62-1.91,1.44-2.53,3.35-2.53,5.6,0,3.14,1.71,5.47,4.78,5.47,5.54,0,8.61-5.74,8.68-10.94Z"/><path class="cls-3" d="M541.33,422.84v2.25h-23.72v-2.25c8-.34,7.25-2.46,5.4-7.66l-1.44-4.03h-16.81l-.82,2.32c-2.6,7.04-3.28,8.95,4.72,9.36v2.25h-17.43v-2.25c6.01-.41,6.97-2.05,9.64-9.36l10.53-28.71,2.67-7.79h4.31l14.01,38.14c2.12,6.01,2.87,7.31,8.95,7.72ZM520.62,408.35l-4.85-13.94-2.19-6.83h-.27l-7.52,20.78h14.83Z"/><path class="cls-3" d="M578.3,397.76c0,4.03-2.73,6.63-5.88,6.63-1.98,0-3.49-1.3-4.1-3.08,1.57-1.43,2.6-3.21,2.53-4.71-.07-1.44-.89-2.26-2.46-2.26-3.14,0-6.63,4.1-8.54,13.46v9.29c0,4.51,0,5.6,5.33,5.81v2.19h-18.18v-2.19c4.78-.2,4.78-1.3,4.78-5.81v-17.5c0-3.35,0-6.42-5.4-6.08v-2.19l12.37-.96.89.96-.34,10.18c2.19-7.52,6.42-11.14,11.41-11.14s7.59,3.55,7.59,7.38Z"/><path class="cls-3" d="M622.11,414.1v4.24c0,2.19-.34,4.1-1.64,5.4-1.23,1.23-3.28,1.98-5.88,1.98-2.46,0-4.44-.75-5.74-2.39-.96-1.3-1.3-3.14-1.3-5.54v-.21c-1.16,2.94-4.24,8.2-12.51,8.2-5.81,0-9.43-3.49-9.43-8.75,0-3.28,1.37-5.4,3.76-7.11,3.96-2.94,10.32-4.31,17.97-5.26v-3.96c0-6.42-3.21-8.07-6.56-8.07-2.87,0-4.65.82-5.67,1.91-.75.68-1.03,1.57-1.03,2.46,0,1.71,1.09,2.8,3.21,4.31-.55,2.19-2.8,3.55-5.26,3.55-3.49,0-5.13-2.6-5.13-5.47,0-5.6,6.08-9.02,14.28-9.02s14.01,3.01,14.01,11.75v15.99c0,1.3.07,2.46.48,3.14.34.68,1.03,1.09,1.98,1.09s1.64-.41,2.05-1.23c.34-.68.41-1.85.41-3.08v-3.96h1.98ZM607.35,410.61v-3.76c-4.65.62-8.47,1.57-10.93,3.62-1.91,1.44-2.53,3.35-2.53,5.6,0,3.14,1.71,5.47,4.78,5.47,5.54,0,8.61-5.74,8.68-10.94Z"/><path class="cls-3" d="M668.85,422.91v2.19h-18.45v-2.19c5.19-.2,4.03-1.5,1.78-5.74l-5.74-9.91c-1.98,1.5-3.9,2.73-5.67,3.69v6.15c0,4.51,0,5.6,4.51,5.81v2.19h-17.43v-2.19c4.85-.2,4.85-1.3,4.85-5.81v-34.1c0-3.35,0-6.29-4.85-6.08v-2.19l12.44-.89.96.89-.48,9.64-.68,24.13c6.63-3.49,14.76-11.14,14.76-13.46,0-1.57-2.46-1.57-5.54-1.78v-2.19h16.74v2.19c-1.98.14-3.9.34-5.4,1.16-1.84.96-3.42,2.73-5.88,5.33-.75.82-1.57,1.64-2.46,2.46l8.68,14.97c2.26,3.9,3.83,5.54,7.86,5.74Z"/><path class="cls-3" d="M675.41,425.1v-2.19c4.85-.2,4.85-1.3,4.85-5.81v-17.77c0-3.35,0-6.22-5.54-5.74v-2.25l13.05-.96.96.96-.48,10.18v15.58c0,4.51,0,5.6,4.85,5.81v2.19h-17.7ZM678.9,379.79c0-3.14,2.12-5.19,5.33-5.19s5.4,1.98,5.4,5.19-2.05,5.13-5.4,5.13-5.33-2.05-5.33-5.13Z"/><path class="cls-2" d="M356.4,114.69c-32.49,0-61.41,15.32-79.9,39.13,1.89,3.69,4.03,7.24,6.4,10.61,16.22-23.17,43.12-38.33,73.49-38.33s57.27,15.17,73.49,38.33c2.37-3.37,4.51-6.92,6.4-10.61-18.49-23.81-47.41-39.13-79.9-39.13ZM356.4,114.69c-32.49,0-61.41,15.32-79.9,39.13,1.89,3.69,4.03,7.24,6.4,10.61,16.22-23.17,43.12-38.33,73.49-38.33s57.27,15.17,73.49,38.33c2.37-3.37,4.51-6.92,6.4-10.61-18.49-23.81-47.41-39.13-79.9-39.13ZM443.52,164.42c-2.18,3.69-4.59,7.24-7.22,10.6,5.8,11.31,9.27,24.02,9.75,37.47,3.59-6.7,6.44-13.84,8.45-21.33-2.37-9.52-6.11-18.51-10.98-26.74ZM356.4,114.69c-32.49,0-61.41,15.32-79.9,39.13,1.89,3.69,4.03,7.24,6.4,10.61,16.22-23.17,43.12-38.33,73.49-38.33s57.27,15.17,73.49,38.33c2.37-3.37,4.51-6.92,6.4-10.61-18.49-23.81-47.41-39.13-79.9-39.13ZM457.52,215.23c-3.79,7.62-8.45,14.75-13.81,21.27-9.36,39.53-44.95,69.01-87.31,69.01s-77.95-29.48-87.31-69.01c-5.36-6.52-10.02-13.64-13.81-21.27-.01.19-.01.38-.01.57,0,55.85,45.28,101.12,101.13,101.12s101.13-45.27,101.13-101.12c0-.19,0-.38-.01-.57ZM276.5,175.02c-2.63-3.36-5.04-6.91-7.22-10.6-4.87,8.23-8.61,17.22-10.98,26.74,2,7.49,4.86,14.63,8.45,21.33.48-13.45,3.96-26.16,9.75-37.47ZM356.4,114.69c-32.49,0-61.41,15.32-79.9,39.13,1.89,3.69,4.03,7.24,6.4,10.61,16.22-23.17,43.12-38.33,73.49-38.33s57.27,15.17,73.49,38.33c2.37-3.37,4.51-6.92,6.4-10.61-18.49-23.81-47.41-39.13-79.9-39.13Z"/><path class="cls-4" d="M266.77,117.01c-3.55,6.61-6.38,13.66-8.38,21.04,2.38,9.38,6.09,18.25,10.89,26.38,2.18-3.69,4.59-7.24,7.22-10.6-5.71-11.13-9.16-23.61-9.73-36.81ZM429.89,164.43c-16.23,23.14-43.12,38.31-73.49,38.31s-57.26-15.17-73.49-38.31c-2.37,3.36-4.51,6.9-6.4,10.59,18.49,23.81,47.41,39.13,79.9,39.13s61.41-15.32,79.9-39.13c-1.89-3.69-4.03-7.23-6.4-10.59ZM266.77,117.01c-3.55,6.61-6.38,13.66-8.38,21.04,2.38,9.38,6.09,18.25,10.89,26.38,2.18-3.69,4.59-7.24,7.22-10.6-5.71-11.13-9.16-23.61-9.73-36.81ZM356.4,11.92c-55.85,0-101.13,45.27-101.13,101.12,0,.42,0,.84.01,1.26,3.75-7.51,8.32-14.53,13.58-20.96,9-40.02,44.83-70,87.53-70s78.53,29.98,87.53,70c5.26,6.43,9.83,13.45,13.58,20.96.01-.42.01-.84.01-1.26,0-55.85-45.28-101.12-101.13-101.12ZM258.39,138.04c2.38,9.38,6.09,18.25,10.89,26.38,2.18-3.69,4.59-7.24,7.22-10.6-5.71-11.13-9.16-23.61-9.73-36.81-3.55,6.61-6.38,13.66-8.38,21.04ZM446.03,117.01c-.57,13.2-4.02,25.68-9.73,36.81,2.63,3.36,5.03,6.91,7.22,10.6,4.81-8.13,8.51-16.99,10.89-26.38-2-7.38-4.83-14.43-8.38-21.04ZM266.77,117.01c-3.55,6.61-6.38,13.66-8.38,21.04,2.38,9.38,6.09,18.25,10.89,26.38,2.18-3.69,4.59-7.24,7.22-10.6-5.71-11.13-9.16-23.61-9.73-36.81ZM266.77,117.01c-3.55,6.61-6.38,13.66-8.38,21.04,2.38,9.38,6.09,18.25,10.89,26.38,2.18-3.69,4.59-7.24,7.22-10.6-5.71-11.13-9.16-23.61-9.73-36.81Z"/><path class="cls-1" d="M443.93,93.33c-20.71-25.36-52.23-41.54-87.53-41.54s-66.82,16.18-87.53,41.54c-1.43,6.34-2.18,12.93-2.18,19.71,0,1.33.03,2.65.09,3.97,17.12-31.99,50.87-53.8,89.63-53.8s72.5,21.81,89.63,53.8c.06-1.32.09-2.64.09-3.97,0-6.77-.75-13.37-2.18-19.71ZM446.05,212.49c-17.11,32.02-50.87,53.86-89.65,53.86s-72.54-21.84-89.65-53.86c-.04,1.09-.06,2.19-.06,3.31,0,7.11.84,14.05,2.41,20.7,20.72,25.2,52.14,41.26,87.31,41.26s66.58-16.07,87.31-41.26c1.57-6.64,2.41-13.58,2.41-20.7,0-1.12-.03-2.22-.06-3.31ZM255.28,114.29c-7.61,15.19-11.88,32.34-11.88,50.48s4.27,35.28,11.88,50.46c.04-8.29,1.08-16.36,3.02-24.07-2.28-8.42-3.49-17.26-3.49-26.39s1.24-18.21,3.58-26.73c-1.94-7.61-3.02-15.56-3.11-23.75ZM457.52,114.29c-.09,8.19-1.17,16.14-3.11,23.75,2.33,8.52,3.58,17.49,3.58,26.73s-1.21,17.97-3.49,26.39c1.94,7.71,2.98,15.77,3.02,24.07,7.61-15.18,11.88-32.32,11.88-50.46s-4.27-35.29-11.88-50.48ZM356.4,266.35c-38.78,0-72.54-21.84-89.65-53.86-.04,1.09-.06,2.19-.06,3.31,0,7.11.84,14.05,2.41,20.7,20.72,25.2,52.14,41.26,87.31,41.26s66.58-16.07,87.31-41.26c1.57-6.64,2.41-13.58,2.41-20.7,0-1.12-.03-2.22-.06-3.31-17.11,32.02-50.87,53.86-89.65,53.86ZM356.4,51.79c-35.31,0-66.82,16.18-87.53,41.54-1.43,6.34-2.18,12.93-2.18,19.71,0,1.33.03,2.65.09,3.97,17.12-31.99,50.87-53.8,89.63-53.8s72.5,21.81,89.63,53.8c.06-1.32.09-2.64.09-3.97,0-6.77-.75-13.37-2.18-19.71-20.71-25.36-52.23-41.54-87.53-41.54ZM443.93,93.33c-20.71-25.36-52.23-41.54-87.53-41.54s-66.82,16.18-87.53,41.54c-1.43,6.34-2.18,12.93-2.18,19.71,0,1.33.03,2.65.09,3.97,17.12-31.99,50.87-53.8,89.63-53.8s72.5,21.81,89.63,53.8c.06-1.32.09-2.64.09-3.97,0-6.77-.75-13.37-2.18-19.71Z"/></svg>